<?xml version="1.0" standalone="no"?>
<!DOCTYPE svg PUBLIC "-//W3C//DTD SVG 20010904//EN"
 "http://www.w3.org/TR/2001/REC-SVG-20010904/DTD/svg10.dtd">
<svg version="1.0" xmlns="http://www.w3.org/2000/svg"
 width="531.000000pt" height="531.000000pt" viewBox="0 0 531.000000 531.000000"
 preserveAspectRatio="xMidYMid meet">
<metadata>
Created by potrace 1.14, written by Peter Selinger 2001-2017
</metadata>
<g transform="translate(0.000000,531.000000) scale(0.100000,-0.100000)"
fill="#000000" stroke="none">
<path d="M4945 3352 c-80 -30 -132 -68 -231 -169 -197 -199 -372 -477 -464
-737 -14 -39 -19 -45 -20 -26 -1 14 -3 43 -5 65 -4 45 -16 262 -17 285 0 40
-30 194 -47 242 -45 132 -120 202 -231 215 -70 8 -88 1 -181 -77 -110 -91
-232 -151 -341 -166 -16 -2 -43 -6 -60 -9 -18 -3 -107 -8 -198 -11 -177 -6
-213 -16 -163 -43 86 -47 124 -104 149 -226 7 -30 6 -135 -1 -180 -40 -255
-183 -446 -330 -441 -87 4 -149 57 -187 163 -31 83 -34 258 -7 368 59 243 212
418 409 469 76 19 201 13 270 -13 30 -12 56 -21 57 -21 8 0 -10 66 -26 97 -32
63 -97 115 -181 146 -64 24 -94 29 -191 32 -234 6 -455 -149 -589 -414 -96
-192 -123 -433 -65 -602 13 -40 21 -77 16 -82 -4 -4 -32 -11 -62 -14 -46 -4
-59 -1 -89 19 -83 56 -129 195 -125 371 2 60 6 127 10 150 4 23 9 56 11 72 3
17 21 93 41 170 26 101 36 163 37 222 1 77 -1 84 -27 110 -23 23 -36 28 -75
27 -26 0 -63 -9 -82 -19 -51 -27 -145 -125 -238 -250 -45 -60 -85 -114 -90
-120 -4 -5 -28 -38 -52 -72 -24 -35 -45 -61 -47 -59 -2 1 6 28 16 58 57 164
60 328 10 400 -42 59 -153 62 -246 6 -106 -64 -276 -264 -417 -491 l-42 -67 0
107 c-1 204 -25 333 -77 410 -27 39 -90 81 -136 89 -96 19 -278 -51 -387 -148
-129 -114 -204 -259 -159 -308 20 -22 65 -26 98 -9 23 13 56 49 57 62 0 19 76
125 115 162 106 102 181 67 202 -96 13 -93 4 -465 -12 -551 -2 -9 -6 -53 -10
-98 -4 -45 -9 -92 -11 -103 -3 -12 -7 -63 -11 -113 -4 -75 -3 -95 11 -117 22
-33 83 -57 146 -57 75 0 98 34 115 165 5 42 14 85 50 245 11 49 78 208 116
276 54 97 166 214 204 214 36 0 48 -38 40 -129 -3 -41 -7 -77 -9 -80 -2 -3 -7
-33 -11 -66 -3 -32 -8 -62 -10 -65 -1 -3 -6 -41 -10 -84 -4 -43 -9 -88 -11
-100 -9 -44 -6 -163 4 -183 23 -43 151 -55 191 -19 22 20 56 104 96 241 44
146 127 292 236 412 20 22 44 43 54 47 16 6 17 2 12 -31 -3 -21 -13 -69 -21
-108 -23 -102 -15 -306 14 -400 29 -91 53 -137 97 -186 68 -75 154 -110 269
-110 97 0 186 32 286 103 13 10 22 6 52 -20 130 -114 368 -156 553 -97 112 35
201 97 290 200 84 98 165 266 179 373 3 26 8 50 10 54 2 3 5 38 5 77 1 47 5
71 13 71 6 0 44 15 83 34 71 34 123 79 197 170 37 46 39 47 57 29 22 -22 45
-108 54 -205 4 -40 9 -86 11 -103 1 -16 5 -113 9 -215 10 -339 20 -409 63
-457 72 -82 203 -76 280 13 34 38 48 69 87 192 67 213 91 274 153 395 88 175
210 346 342 478 119 121 185 132 277 48 72 -66 132 -46 139 47 4 57 -22 112
-71 150 -48 36 -147 43 -220 16z"/>
</g>
</svg>
